#N canvas 708 226 572 452 10;
#X msg 89 348 1 \$2 \, \$4 \$3 \$2;
#X obj 89 379 vline~;
#X obj 210 306 sel 0;
#X obj 210 327 pack f f;
#X msg 210 348 0 \$2;
#X obj 309 114 vsl 20 64 0 300 0 0 empty empty empty 0 -9 0 10 -262144
-1 -1 2100 1;
#X obj 349 114 vsl 20 64 0 300 0 0 empty empty empty 0 -9 0 10 -262144
-1 -1 4200 1;
#X obj 389 114 vsl 20 64 0 1 0 0 empty empty empty 0 -9 0 10 -262144
-1 -1 3780 1;
#X obj 429 114 vsl 20 64 0 500 0 0 empty empty empty 0 -9 0 10 -262144
-1 -1 1008 1;
#X obj 89 327 pack f f f f;
#X floatatom 309 188 5 0 0 0 - - -;
#X floatatom 349 188 5 0 0 0 - - -;
#X floatatom 389 188 5 0 0 0 - - -;
#X floatatom 429 188 5 0 0 0 - - -;
#X text 473 136 adsr;
#X msg 309 52 100;
#X msg 349 53 200;
#X msg 429 51 80;
#X obj 362 7 loadbang;
#X obj 210 215 r velocity;
#X msg 389 52 0.6;
#X obj 89 266 r note;
#X obj 89 416 s~ output;
#X connect 0 0 1 0;
#X connect 1 0 22 0;
#X connect 2 0 3 0;
#X connect 3 0 4 0;
#X connect 4 0 1 0;
#X connect 5 0 10 0;
#X connect 6 0 11 0;
#X connect 7 0 12 0;
#X connect 8 0 13 0;
#X connect 9 0 0 0;
#X connect 10 0 9 1;
#X connect 11 0 9 2;
#X connect 12 0 9 3;
#X connect 13 0 3 1;
#X connect 15 0 5 0;
#X connect 16 0 6 0;
#X connect 17 0 8 0;
#X connect 18 0 15 0;
#X connect 18 0 16 0;
#X connect 18 0 20 0;
#X connect 18 0 17 0;
#X connect 19 0 2 0;
#X connect 20 0 7 0;
#X connect 21 0 9 0;
