#N canvas -8 0 900 966 10;
#X obj 326 294 -;
#X obj 631 139 mtof;
#X obj 631 287 osc~;
#X obj 364 473 osc~;
#X obj 364 438 mtof;
#X obj 463 19 notein;
#X obj 413 81 stripnote;
#X obj 631 402 *~;
#X obj 363 635 dac~;
#X obj 506 64 s velocity;
#X obj 646 350 r~ output;
#X obj 294 476 s note;
#X obj 363 583 *~;
#X obj 378 531 r~ output;
#X obj 722 208 adsr;
#X obj 363 394 pipe 1000;
#X obj 323 353 +;
#X obj 449 396 \$2;
#X obj 499 425 s velocity;
#X obj 419 427 bng 15 250 50 0 empty empty empty 17 7 0 10 -262144
-1 -1;
#X floatatom 449 467 5 0 0 0 - - -;
#X obj 499 398 pipe 1000;
#X obj 499 372 spigot;
#X obj 532 343 == 0;
#X text 622 117 note played;
#X text 288 94 negative note;
#X text 440 320 velocity for negative note;
#X obj 565 99 s note;
#X obj 619 36 print;
#X obj 244 221 print;
#X obj 332 236 t f b;
#X msg 382 266 63.5;
#X obj 321 378 abs;
#X obj 324 321 * -1;
#X obj 192 492 ctlout 10;
#X connect 0 0 33 0;
#X connect 1 0 2 0;
#X connect 2 0 7 0;
#X connect 3 0 12 0;
#X connect 4 0 3 0;
#X connect 5 0 6 0;
#X connect 5 1 6 1;
#X connect 5 1 9 0;
#X connect 5 1 23 0;
#X connect 5 1 22 0;
#X connect 6 0 1 0;
#X connect 6 0 27 0;
#X connect 6 0 29 0;
#X connect 6 0 30 0;
#X connect 6 1 17 1;
#X connect 7 0 8 0;
#X connect 7 0 8 1;
#X connect 10 0 7 1;
#X connect 12 0 8 0;
#X connect 12 0 8 1;
#X connect 13 0 12 1;
#X connect 15 0 4 0;
#X connect 15 0 19 0;
#X connect 15 0 11 0;
#X connect 15 0 20 0;
#X connect 15 0 34 0;
#X connect 16 0 32 0;
#X connect 17 0 18 0;
#X connect 19 0 17 0;
#X connect 21 0 18 0;
#X connect 22 0 21 0;
#X connect 23 0 22 1;
#X connect 30 0 0 0;
#X connect 30 1 31 0;
#X connect 31 0 0 1;
#X connect 31 0 16 1;
#X connect 32 0 15 0;
#X connect 32 0 29 0;
#X connect 33 0 16 0;
